# xmcd
#
# Track frame offsets: 
#        150
#        15140
#        29132
#        40097
#        55980
#        67090
#        81007
#        94012
#        111500
#        123507
#        137457
#        159817
#
# Disc length: 2368 seconds
#
# Revision: 3
# Processed by: cddbd v1.5.1PL2 Copyright (c) Steve Scherf et al.
# Submitted via: ExactAudioCopy v0.95b3
#
DISCID=96093e0c
DTITLE=Doyle Dykes - Country Fried Pickin'
DYEAR=2003
DGENRE=Country
TTITLE0=Wabash Cannonball
TTITLE1=Martha's Kitchen
TTITLE2=Country Fried Pickin'
TTITLE3=The Chet Medley
TTITLE4=Duane Thang
TTITLE5=Me N' Jesus And My Old Guitar
TTITLE6=Grandpa Jones Medley
TTITLE7=I've Heard That Song Before
TTITLE8=Avalon
TTITLE9=Peace Over Shanghai
TTITLE10=Three Little Miracles
TTITLE11=Smoke Gets In Your Eyes
EXTD=YEAR: 2002 ID3G: 2
EXTT0=
EXTT1=
EXTT2=
EXTT3=
EXTT4=
EXTT5=
EXTT6=
EXTT7=
EXTT8=
EXTT9=
EXTT10=
EXTT11=
PLAYORDER=
